<?xml version="1.0" standalone="no"?>
<!DOCTYPE svg PUBLIC "-//W3C//DTD SVG 20010904//EN"
 "http://www.w3.org/TR/2001/REC-SVG-20010904/DTD/svg10.dtd">
<svg version="1.0" xmlns="http://www.w3.org/2000/svg"
 width="480.000000pt" height="510.000000pt" viewBox="0 0 480.000000 510.000000"
 preserveAspectRatio="xMidYMid meet">

<g transform="translate(0.000000,510.000000) scale(0.100000,-0.100000)"
fill="#000000" stroke="none">
<path d="M0 4386 l0 -715 32 -3 c30 -3 31 -4 15 -20 -9 -9 -17 -22 -17 -28 0
-7 -7 -10 -15 -6 -13 5 -15 -60 -15 -544 l0 -550 43 -2 c23 -1 62 -3 87 -4
115 -3 120 -4 120 -19 0 -12 -22 -15 -127 -17 -84 -1 -111 -3 -78 -7 35 -4 50
-10 50 -21 0 -11 -13 -16 -48 -18 l-47 -3 2 -477 3 -477 300 -3 c296 -2 344 0
316 17 -10 6 -10 10 -2 16 7 4 18 1 26 -5 18 -15 69 -4 59 11 -4 8 1 8 17 3
13 -5 41 -8 62 -7 29 1 37 -3 37 -17 0 -22 17 -28 55 -19 23 5 25 7 8 8 -12 0
-24 5 -27 10 -8 13 30 21 102 21 59 0 63 -1 57 -20 -6 -19 -2 -20 172 -21 98
-1 241 -3 317 -5 182 -5 209 0 223 37 7 17 19 29 29 29 26 0 8 13 -24 18 -37
5 -39 9 -20 42 9 16 14 37 12 48 -3 10 2 24 10 31 10 9 14 22 10 37 -4 15 -2
24 5 24 6 0 11 -6 11 -14 0 -14 22 -13 60 1 8 4 18 5 23 5 16 -4 6 18 -14 28
-35 19 -12 24 26 5 55 -26 51 -13 -6 21 -33 19 -58 43 -72 69 -12 22 -25 41
-29 43 -4 2 -5 9 -2 16 3 8 -2 20 -11 29 -8 9 -31 48 -51 86 -20 39 -39 69
-43 67 -4 -3 -6 -68 -5 -146 3 -118 6 -147 22 -174 34 -58 36 -100 7 -153 -15
-27 -32 -53 -38 -58 -16 -13 -227 -7 -227 7 0 5 11 24 25 42 36 44 40 50 43
66 2 8 10 18 17 23 8 4 12 14 9 22 -4 10 0 15 11 15 9 0 13 -4 10 -10 -4 -6 1
-7 11 -3 15 5 15 7 0 15 -9 5 -16 16 -16 24 0 11 4 12 19 4 11 -5 26 -10 33
-10 7 1 1 8 -14 16 -32 17 -33 18 -14 47 20 30 49 180 48 244 -1 44 1 51 15
46 12 -5 15 -2 10 10 -4 9 -10 24 -14 34 -4 12 -3 14 6 8 10 -6 12 0 6 23 -3
17 -1 48 4 70 12 43 18 47 178 96 40 12 75 25 79 28 9 10 44 -30 44 -52 0 -23
47 -73 61 -65 5 4 9 -3 9 -14 0 -33 18 -34 35 -2 20 40 20 41 -13 35 -32 -7
-65 19 -37 29 8 4 12 13 9 22 -9 23 10 18 39 -10 18 -19 32 -24 49 -20 23 6
57 45 39 45 -5 0 -11 -7 -15 -15 -7 -19 -32 -19 -43 -1 -13 23 -77 31 -92 12
-19 -23 -28 -20 -28 8 0 18 4 22 18 19 11 -3 19 0 19 5 0 6 19 17 43 23 39 12
40 13 15 18 -14 3 -50 28 -79 55 -50 46 -52 49 -34 62 18 14 18 15 -3 52 -24
44 -21 53 17 46 30 -5 57 9 47 25 -4 6 -19 11 -33 11 -15 0 -24 3 -20 6 3 4
22 3 42 0 31 -6 35 -10 35 -37 0 -16 -9 -39 -19 -50 -11 -12 -21 -29 -24 -39
-7 -29 20 -60 51 -59 17 1 21 3 10 6 -10 2 -18 8 -18 13 0 5 8 10 18 13 11 2
6 7 -18 14 -31 10 -32 11 -9 12 33 1 42 10 28 28 -7 7 -9 30 -6 53 4 33 1 43
-16 55 -12 8 -36 15 -54 15 -36 0 -39 8 -27 68 5 26 13 32 49 41 72 18 110 14
147 -16 47 -39 56 -53 63 -95 4 -21 10 -38 15 -38 16 0 29 27 23 48 -8 31 15
28 29 -3 15 -34 28 -32 28 5 0 28 -29 57 -44 43 -3 -3 -6 -1 -6 5 0 13 -59
103 -75 114 -5 4 34 8 87 8 l96 0 6 -62 c3 -35 7 -114 10 -176 5 -122 8 -115
-41 -95 -6 2 -14 -8 -18 -25 -7 -36 -32 -46 -120 -51 l-30 -1 40 -39 c49 -46
73 -59 197 -101 l97 -33 20 -51 c20 -52 27 -101 37 -241 3 -44 9 -84 14 -90 5
-6 14 -44 21 -84 11 -74 22 -98 104 -216 22 -31 45 -65 50 -74 19 -31 51 -66
120 -133 53 -51 77 -68 98 -68 29 0 81 -30 104 -60 27 -34 5 -42 -29 -10 -22
20 -74 29 -63 10 10 -16 -68 -12 -93 6 -27 19 -49 9 -30 -14 11 -13 10 -15 -9
-10 -13 4 -26 2 -29 -3 -19 -32 -87 27 -79 70 4 21 4 22 -3 6 -9 -19 -9 -19
-23 3 -8 12 -22 22 -31 22 -21 0 -24 16 -5 23 9 4 9 6 -1 6 -7 1 -17 13 -23
28 -7 19 -13 23 -18 15 -7 -12 -86 -11 -298 1 -23 1 -79 0 -125 -4 -46 -3 -87
-3 -93 1 -5 4 -86 8 -180 9 -93 1 -222 4 -285 6 -63 2 -405 6 -760 10 -355 3
-691 7 -747 10 l-103 6 0 -189 c0 -176 1 -190 20 -207 54 -49 53 -254 -2 -268
-16 -5 -18 -16 -18 -97 l0 -92 38 23 c49 30 48 29 32 39 -10 6 -11 12 -2 22 9
11 8 19 -4 36 -14 20 -13 24 11 49 23 25 25 36 25 112 0 98 -14 154 -47 184
-13 12 -28 30 -33 39 -9 14 -5 17 20 16 17 -1 36 4 42 10 7 7 20 12 30 12 10
0 22 8 25 17 7 19 33 42 47 43 5 0 7 -123 4 -290 -4 -231 -2 -294 8 -308 7 -9
14 -12 14 -7 0 6 2 149 3 320 l2 310 40 -1 c22 -1 60 -7 85 -12 27 -7 216 -11
469 -11 234 -1 427 -3 430 -6 3 -3 5 -141 5 -307 1 -191 5 -303 11 -305 6 -2
11 105 13 304 2 168 5 309 7 313 3 4 16 5 30 2 14 -2 31 1 39 7 9 8 15 8 18 2
1 -6 40 -12 85 -13 85 -2 100 -14 28 -21 -36 -3 -35 -4 12 -5 36 -1 56 3 68
14 13 13 23 15 48 7 l32 -10 -40 -7 c-63 -12 -76 -17 -70 -27 4 -5 17 -9 30
-9 13 0 27 -5 30 -10 3 -5 13 -10 21 -10 8 0 13 4 10 9 -7 10 52 24 65 15 5
-3 19 -2 32 2 21 8 20 8 -8 15 l-30 7 30 1 c20 1 26 4 17 10 -21 13 119 21
370 21 l228 0 0 -316 c0 -280 2 -315 15 -304 18 15 93 22 100 10 3 -5 1 -11
-5 -15 -5 -3 -10 -22 -10 -41 0 -19 -5 -34 -11 -34 -8 0 -9 -13 -5 -41 10 -60
-3 -159 -20 -159 -17 0 -18 17 -1 23 9 4 8 8 -3 17 -11 9 -12 13 -2 17 7 3 12
22 12 46 0 33 -3 39 -11 27 -8 -12 -9 -9 -5 13 4 15 2 27 -4 27 -5 0 -11 -6
-11 -12 -1 -7 -4 1 -8 17 l-6 30 -460 5 c-253 3 -469 2 -480 -2 -23 -8 104
-10 578 -8 l337 1 1 -143 c1 -79 1 -194 0 -256 -1 -72 2 -112 9 -112 6 0 10
40 10 109 0 63 4 112 10 116 6 4 10 -6 11 -22 l1 -28 8 25 c4 14 8 41 9 61 1
24 6 36 15 36 8 0 14 -5 13 -10 -1 -5 4 -12 10 -14 10 -3 12 9 9 47 -4 37 -1
50 7 47 7 -2 13 -15 14 -28 1 -13 4 -53 8 -89 4 -36 8 -105 9 -154 1 -66 5
-91 15 -94 12 -4 13 34 7 246 l-8 251 46 6 c28 5 51 3 59 -3 8 -7 20 -6 37 3
23 13 19 14 -51 15 -81 0 -86 3 -85 50 l1 25 113 -3 c75 -3 112 0 112 7 0 8
118 11 393 11 215 0 686 3 1045 7 l652 6 0 24 0 23 -177 0 c-466 0 -1312 10
-1346 16 -25 4 -43 2 -54 -7 -13 -11 -17 -11 -20 -1 -5 14 -83 17 -83 2 0 -12
-602 -12 -640 0 -14 4 -18 9 -10 9 13 1 13 2 0 11 -11 7 -6 10 22 10 20 0 40
5 44 11 4 7 -2 9 -17 7 -16 -2 -25 3 -27 14 -3 17 18 18 315 20 175 1 336 3
358 4 22 2 399 3 838 3 526 1 797 4 797 11 0 7 -392 10 -1167 10 -743 -1
-1170 3 -1176 9 -5 5 -7 17 -4 25 6 14 58 16 459 17 604 2 577 1 592 21 14 19
56 24 72 9 5 -5 32 -14 60 -19 l50 -9 -2 33 c-2 21 2 34 11 38 21 8 19 26 -2
26 -15 0 -16 2 -3 10 12 8 9 12 -17 22 -46 18 -41 28 15 28 34 0 43 3 32 10
-8 5 -29 10 -47 10 -30 0 -32 2 -31 35 1 26 6 35 22 37 17 2 22 12 27 48 l6
45 1 -42 c2 -36 6 -42 31 -51 16 -6 35 -20 41 -32 9 -17 19 -21 47 -18 21 1
38 -2 40 -9 6 -16 -35 -27 -51 -14 -8 6 -22 8 -32 4 -17 -6 -17 -8 5 -13 l24
-6 -31 -35 c-21 -24 -28 -39 -22 -49 6 -10 3 -21 -7 -32 -9 -10 -13 -21 -9
-26 9 -8 289 -16 320 -8 26 6 58 97 37 104 -16 5 -41 31 -41 43 0 5 15 9 33
10 29 1 30 2 7 8 -14 4 -27 16 -29 26 -2 11 -8 23 -14 27 -7 4 0 12 16 19 21
10 27 19 27 46 0 18 5 33 11 33 7 0 10 -13 7 -34 -3 -29 0 -35 24 -44 22 -8
28 -17 28 -41 0 -17 -5 -31 -12 -31 -6 0 -3 -6 8 -14 18 -14 18 -16 2 -44 -14
-23 -15 -36 -8 -62 5 -18 7 -37 4 -41 -8 -13 51 -11 81 3 19 9 28 9 37 0 9 -9
86 -12 270 -12 l258 0 0 290 0 290 -303 3 -302 2 303 3 c295 2 302 2 302 22 0
20 -7 20 -752 22 -477 1 -689 4 -578 9 96 3 435 7 753 8 l577 1 0 405 c0 317
-3 405 -12 405 -9 0 -10 3 -2 8 6 4 11 16 11 27 0 11 -5 24 -11 28 -8 6 -7 10
2 14 16 6 16 40 0 47 -10 5 -10 7 0 12 14 7 16 90 2 149 -14 60 -15 558 -1
563 14 5 15 82 1 82 -5 0 -10 5 -10 11 0 5 5 7 10 4 7 -4 9 114 8 347 0 194
-4 331 -7 303 -6 -49 -6 -50 -14 -16 -12 58 -9 91 11 92 10 0 12 3 5 6 -7 2
-13 9 -13 14 0 6 5 7 10 4 6 -3 10 0 10 9 0 8 -6 17 -12 19 -10 4 -10 6 0 6
17 1 15 48 -3 55 -12 4 -13 10 -3 33 9 20 13 141 16 404 l3 376 -73 6 c-40 3
-348 6 -685 6 -570 1 -690 6 -639 27 10 4 329 4 707 1 682 -6 689 -6 689 13 0
22 46 20 -595 25 -306 2 -928 16 -923 20 2 2 229 6 506 10 390 5 506 4 517 -5
8 -7 15 -8 15 -3 0 7 87 8 240 5 l240 -5 0 47 0 46 -1715 0 -1715 0 0 -38 c0
-36 2 -38 43 -50 57 -16 76 -29 59 -41 -11 -7 -11 -9 2 -14 12 -5 16 -20 16
-56 l0 -51 -45 7 -45 6 0 -62 c0 -40 4 -60 10 -56 6 4 10 12 8 18 -3 20 31 89
41 83 5 -4 7 -22 4 -40 l-5 -34 66 5 c86 7 141 -13 196 -73 52 -57 72 -104 73
-174 0 -58 -25 -123 -65 -167 -18 -19 -22 -20 -35 -7 -24 24 -72 18 -85 -11
-16 -36 -41 -33 -36 5 4 27 1 30 -27 36 -42 8 -147 -8 -152 -23 -3 -7 12 -22
31 -35 33 -21 36 -26 36 -75 0 -28 5 -55 10 -58 14 -9 12 -45 -2 -45 -10 0
-14 -45 -16 -184 -3 -170 3 -218 23 -186 7 12 25 13 25 2 0 -14 -135 -74 -156
-70 -10 2 -23 -2 -29 -9 -8 -10 -54 -7 -225 12 -118 14 -232 27 -252 31 -33 5
-38 3 -38 -14 0 -18 10 -20 137 -26 193 -10 203 -25 18 -27 -82 -1 -184 -3
-225 -4 l-75 -2 -3 -37 c-2 -27 -7 -36 -19 -34 -13 3 -15 21 -14 118 1 146 11
270 21 270 16 0 20 -34 20 -156 l0 -124 24 0 c14 0 35 -4 48 -9 l23 -9 3 191
c2 105 8 200 12 213 10 25 4 34 -23 34 -12 0 -17 5 -14 14 3 8 0 26 -6 40 -11
22 -19 25 -93 31 -45 4 -95 4 -111 1 -34 -8 -54 9 -78 67 -21 51 -19 119 6
172 19 41 69 95 88 95 4 0 13 17 19 38 52 170 296 209 409 65 75 -96 72 -237
-6 -320 -15 -16 -21 -36 -21 -70 -1 -39 -3 -45 -11 -29 -6 10 -9 36 -6 58 5
35 3 40 -20 49 -35 13 -63 11 -63 -5 0 -8 -8 -22 -17 -32 -16 -15 -16 -17 0
-29 12 -8 17 -26 17 -58 0 -31 5 -47 15 -51 8 -3 15 -15 15 -26 0 -16 -6 -20
-37 -20 l-38 0 3 -162 c2 -90 7 -166 10 -169 4 -3 75 -14 157 -24 83 -10 165
-20 183 -23 l32 -4 0 73 c0 41 3 85 7 98 6 22 4 23 -25 19 -24 -3 -32 0 -36
14 -2 11 2 22 9 24 8 3 11 16 9 33 -4 25 -1 29 26 35 47 9 68 -7 73 -57 2 -23
4 -5 5 41 1 49 -2 82 -8 82 -5 0 -10 -7 -10 -15 0 -8 -7 -15 -15 -15 -9 0 -12
6 -8 17 6 14 0 15 -58 9 -35 -4 -74 -8 -87 -9 -35 -3 -81 65 -88 128 -7 67 32
147 94 190 39 27 51 30 112 29 l69 -1 3 195 c2 145 6 196 16 200 6 2 12 10 12
18 0 8 7 14 15 14 12 0 15 -22 17 -132 l2 -133 3 113 c3 85 7 112 17 112 10 0
13 -18 13 -65 0 -122 20 -87 25 44 l3 74 -72 -6 -73 -5 0 33 c0 49 28 77 86
86 49 7 48 7 -14 6 -34 -1 -62 1 -62 5 0 8 66 28 93 28 13 0 17 9 17 40 l0 40
-675 0 -675 0 0 -714z m3227 558 c-3 -3 -12 -4 -19 -1 -8 3 -5 6 6 6 11 1 17
-2 13 -5z m88 -4 c15 -6 11 -7 -17 -7 -23 1 -33 4 -25 9 14 9 16 9 42 -2z
m1425 -90 c0 -5 -4 -10 -10 -10 -5 0 -10 5 -10 10 0 6 5 10 10 10 6 0 10 -4
10 -10z m-537 -17 c-68 -2 -178 -2 -245 0 -68 1 -13 3 122 3 135 0 190 -2 123
-3z m-90 -40 c-7 -2 -19 -2 -25 0 -7 3 -2 5 12 5 14 0 19 -2 13 -5z m110 0
c-13 -2 -33 -2 -45 0 -13 2 -3 4 22 4 25 0 35 -2 23 -4z m250 0 c-13 -2 -35
-2 -50 0 -16 2 -5 4 22 4 28 0 40 -2 28 -4z m165 0 c-21 -2 -55 -2 -75 0 -21
2 -4 4 37 4 41 0 58 -2 38 -4z m100 -28 c-3 -3 -9 2 -12 12 -6 14 -5 15 5 6 7
-7 10 -15 7 -18z m-341 -21 c-3 -3 -12 -4 -19 -1 -8 3 -5 6 6 6 11 1 17 -2 13
-5z m-2211 -152 c103 -53 152 -185 109 -289 -27 -64 -41 -74 -99 -67 -46 5
-52 4 -61 -17 -15 -34 -34 -36 -32 -2 l2 28 -70 -3 c-98 -5 -108 -13 -57 -47
40 -26 41 -28 25 -51 -20 -31 -27 -30 -19 2 l7 27 -68 -7 c-37 -4 -77 -9 -88
-12 -35 -8 -69 58 -73 144 -4 65 -1 77 21 111 14 21 40 49 57 62 18 13 49 40
69 60 42 42 88 74 116 82 36 10 122 -1 161 -21z m1861 -84 c-3 -7 -5 -2 -5 12
0 14 2 19 5 13 2 -7 2 -19 0 -25z m220 0 c-3 -7 -5 -2 -5 12 0 14 2 19 5 13 2
-7 2 -19 0 -25z m63 -5 c-1 -24 -2 -26 -11 -10 -5 9 -7 22 -4 27 10 17 15 11
15 -17z m425 -773 c7 -698 -3 -1356 -19 -1340 -13 13 -21 1849 -9 2020 l7 105
7 -100 c4 -55 10 -363 14 -685z m-1150 720 c3 -5 1 -10 -4 -10 -6 0 -11 5 -11
10 0 6 2 10 4 10 3 0 8 -4 11 -10z m285 -232 l0 -148 -40 0 -40 0 0 155 c0 90
4 155 9 155 6 0 12 -15 14 -32 2 -22 5 -13 7 27 l4 60 6 -70 6 -70 3 85 3 85
14 -50 c9 -32 14 -103 14 -197z m507 236 c-3 -3 -12 -4 -19 -1 -8 3 -5 6 6 6
11 1 17 -2 13 -5z m-397 -173 l0 -147 -35 -17 c-20 -9 -38 -17 -41 -17 -3 0
-4 65 -3 145 l1 145 31 24 c17 14 35 22 39 20 4 -3 8 -72 8 -153z m437 137
c-3 -8 -6 -5 -6 6 -1 11 2 17 5 13 3 -3 4 -12 1 -19z m-31 -3 c14 -13 13 -15
-10 -15 -16 0 -26 6 -26 15 0 8 5 15 11 15 6 0 17 -7 25 -15z m-773 -2 c-7 -2
-21 -2 -30 0 -10 3 -4 5 12 5 17 0 24 -2 18 -5z m87 -53 c0 -5 -5 -10 -11 -10
-5 0 -7 5 -4 10 3 6 8 10 11 10 2 0 4 -4 4 -10z m345 -40 c18 0 25 -23 25 -78
0 -34 3 -43 10 -32 7 10 9 -5 9 -50 -1 -36 -3 -57 -6 -47 -3 11 -10 16 -20 13
-8 -3 -24 -1 -35 5 -18 10 -19 18 -14 82 3 40 6 90 7 112 1 24 3 31 6 18 2
-13 10 -23 18 -23z m-285 -110 l0 -140 -41 0 -41 0 4 80 c2 46 -1 80 -7 80 -5
0 -4 5 2 11 6 6 9 18 5 27 -4 12 -1 14 12 9 23 -9 53 20 37 36 -16 16 -14 30
4 23 8 -3 15 -1 15 4 0 6 2 10 5 10 3 0 5 -63 5 -140z m-57 100 c3 -12 0 -20
-7 -20 -6 0 -12 9 -13 20 -1 11 2 20 6 20 5 0 11 -9 14 -20z m-2132 -11 c17
-8 20 -19 18 -56 -2 -34 1 -47 14 -54 9 -6 17 -19 17 -29 0 -16 -7 -20 -37
-20 l-38 0 0 -208 c0 -129 4 -208 10 -211 6 -2 92 0 192 4 l182 7 3 106 c2 73
7 107 16 110 9 3 12 -23 12 -107 l0 -111 33 0 c20 0 36 7 43 18 6 9 12 73 13
142 2 123 8 149 31 135 7 -4 11 -49 10 -133 -1 -70 -1 -132 -1 -139 1 -8 42
-12 139 -13 75 -1 153 -3 172 -4 l35 -3 16 -184 c9 -101 20 -210 24 -241 l8
-58 -88 0 c-73 0 -86 2 -81 15 4 12 -4 15 -47 13 -50 -1 -50 -2 -9 -5 23 -2
42 -8 42 -14 0 -7 -227 -2 -236 5 -2 1 -10 133 -20 312 l-7 121 -76 -4 c-42
-2 -185 -4 -319 -6 -200 -2 -239 0 -225 11 27 19 62 26 76 13 11 -8 13 24 11
177 -2 142 1 195 12 221 18 43 18 41 -12 41 -20 0 -25 4 -20 16 4 9 2 22 -3
28 -4 6 -11 32 -13 58 -4 38 -2 48 11 51 31 9 73 7 92 -4z m2072 -9 c3 -11 1
-20 -4 -20 -5 0 -9 9 -9 20 0 11 2 20 4 20 2 0 6 -9 9 -20z m510 -112 c3 -39
0 -61 -8 -68 -19 -16 -27 41 -18 130 6 70 7 72 14 35 4 -22 9 -66 12 -97z
m279 82 c-2 -42 1 -47 33 -68 31 -20 35 -27 35 -65 l0 -43 -110 -1 c-106 -1
-110 0 -110 21 0 45 13 65 57 88 43 22 44 24 39 61 -8 47 -4 54 31 53 27 -1
28 -3 25 -46z m-1397 21 c3 -5 1 -12 -5 -16 -5 -3 -10 1 -10 9 0 18 6 21 15 7z
m585 -40 c0 -5 -9 -7 -20 -4 -11 3 -20 7 -20 9 0 2 9 4 20 4 11 0 20 -4 20 -9z
m-313 -83 c-2 -13 -4 -3 -4 22 0 25 2 35 4 23 2 -13 2 -33 0 -45z m-2656 19
c-10 -9 -11 -8 -5 6 3 10 9 15 12 12 3 -3 0 -11 -7 -18z m256 -24 c-3 -10 -5
-4 -5 12 0 17 2 24 5 18 2 -7 2 -21 0 -30z m2713 27 c0 -5 -9 -9 -20 -7 -30 5
-32 12 -5 15 14 1 25 -3 25 -8z m-1516 -6 c11 -4 16 -19 16 -43 0 -21 3 -41 7
-45 4 -3 7 -15 8 -26 2 -19 -3 -20 -77 -16 -62 3 -78 1 -78 -10 0 -8 5 -14 10
-14 6 0 10 -14 10 -30 l0 -31 -65 2 c-56 2 -65 4 -65 21 0 10 6 21 14 24 9 3
13 20 12 47 l-1 42 58 0 c60 -1 63 2 58 57 -3 22 56 36 93 22z m-1414 -24 c0
-11 -4 -20 -9 -20 -6 0 -9 9 -8 20 1 11 5 20 9 20 4 0 8 -9 8 -20z m2960 10
c0 -5 -4 -10 -10 -10 -5 0 -10 5 -10 10 0 6 5 10 10 10 6 0 10 -4 10 -10z
m-2990 -36 c6 -14 10 -39 10 -55 0 -21 5 -29 18 -30 11 0 12 -2 4 -6 -10 -4
-10 -8 -1 -19 9 -11 6 -14 -19 -14 -16 0 -44 3 -62 6 -24 5 -31 11 -27 25 3
11 1 22 -4 25 -10 6 -12 77 -2 87 3 4 21 7 40 7 27 0 35 -5 43 -26z m2450 11
c-7 -9 -30 -15 -54 -16 -25 0 -34 -3 -24 -7 9 -4 -29 -7 -85 -8 -56 0 -90 1
-74 3 15 3 27 9 27 14 0 5 37 9 83 10 45 0 91 4 102 9 31 13 39 12 25 -5z
m277 9 c-3 -3 -12 -4 -19 -1 -8 3 -5 6 6 6 11 1 17 -2 13 -5z m263 -8 c0 -11
-19 -15 -25 -6 -3 5 1 10 9 10 9 0 16 -2 16 -4z m-534 -51 c-3 -10 -19 -15
-43 -14 l-38 1 30 10 c17 6 34 18 39 27 11 19 21 -1 12 -24z m-97 -11 c2 -2
-40 -4 -95 -4 -61 0 -94 4 -85 9 13 8 170 3 180 -5z m-2449 -44 c0 -11 -7 -20
-15 -20 -8 0 -15 9 -15 20 0 11 7 20 15 20 8 0 15 -9 15 -20z m2698 -14 c0
-16 -5 -23 -14 -19 -10 4 -11 9 -1 24 15 24 15 24 15 -5z m1145 -23 c-7 -2
-19 -2 -25 0 -7 3 -2 5 12 5 14 0 19 -2 13 -5z m230 0 c-7 -2 -21 -2 -30 0
-10 3 -4 5 12 5 17 0 24 -2 18 -5z m-1376 -80 c-2 -16 -4 -5 -4 22 0 28 2 40
4 28 2 -13 2 -35 0 -50z m88 51 c-10 -8 -22 -11 -26 -8 -5 3 -9 -15 -9 -40 0
-67 -17 -65 -19 3 l-1 58 36 0 c33 0 35 -2 19 -13z m1303 -44 c-1 -33 -6 -60
-10 -60 -4 0 -8 7 -8 15 0 8 -4 15 -10 15 -5 0 -10 7 -10 15 0 8 -18 27 -40
41 -22 15 -40 28 -40 30 0 2 27 4 60 4 l61 0 -3 -60z m-1391 -77 c-3 -10 -5
-4 -5 12 0 17 2 24 5 18 2 -7 2 -21 0 -30z m0 -45 c-3 -8 -6 -5 -6 6 -1 11 2
17 5 13 3 -3 4 -12 1 -19z m588 -82 c18 -19 20 -38 24 -195 3 -167 2 -177 -20
-222 -32 -65 -56 -70 -64 -15 -5 31 -1 473 4 496 1 2 9 -6 19 -19 9 -13 26
-33 37 -45z m-588 -173 c-1 -43 -3 -10 -3 72 0 83 2 118 3 78 2 -40 2 -107 0
-150z m502 -174 l1 -96 -35 -1 c-19 -1 -37 3 -40 9 -8 12 14 79 26 79 5 0 9 5
9 10 0 6 -6 10 -14 10 -28 0 -37 80 -14 124 7 12 6 22 -1 29 -6 6 -11 30 -11
54 0 35 6 48 30 71 17 16 31 38 32 48 2 30 16 -230 17 -337z m-1804 255 c0
-37 -4 -49 -15 -49 -10 0 -15 10 -15 30 0 33 2 33 -220 52 l-90 8 160 5 c88 3
164 5 170 4 5 0 10 -23 10 -50z m1988 18 c14 -13 16 -24 11 -61 -4 -25 -13
-50 -20 -54 -21 -12 -17 -45 5 -52 23 -7 35 -37 27 -62 -4 -10 -22 -26 -41
-35 l-34 -17 1 154 c1 164 2 168 51 127z m329 19 c4 0 9 -51 10 -113 l3 -112
30 -12 30 -12 -4 44 c-3 42 -2 44 23 44 21 0 26 5 26 24 0 13 -7 26 -15 30
-10 3 -15 19 -15 45 0 31 5 42 26 56 14 9 28 15 30 12 2 -2 7 -91 10 -198 2
-107 7 -202 10 -211 5 -17 -7 -18 -150 -18 l-156 0 -1 178 c0 97 -2 190 -4
206 -2 16 -2 32 0 35 3 5 122 7 147 2z m-3092 -5 c0 -11 -19 -15 -25 -6 -3 5
1 10 9 10 9 0 16 -2 16 -4z m390 -55 c0 -5 -4 -21 -9 -35 -8 -19 -15 -23 -32
-19 -18 5 -20 3 -15 -15 6 -17 3 -19 -13 -15 -30 8 -48 32 -32 43 23 13 2 30
-37 30 -37 -1 -81 -24 -69 -37 4 -3 21 -6 37 -6 17 0 30 -4 30 -9 0 -9 -14
-11 -42 -9 -10 1 -25 -2 -35 -8 -11 -5 -24 -6 -34 0 -27 14 -41 -12 -21 -39
21 -27 76 -37 93 -16 9 11 8 14 -5 14 -24 0 -19 17 7 24 46 12 58 8 51 -19 -5
-20 -3 -25 14 -25 11 0 32 7 48 15 15 8 30 12 32 10 3 -3 -3 -29 -24 -94 -3
-11 -7 -11 -19 -1 -10 8 -19 9 -27 3 -22 -17 -124 -15 -138 2 -17 20 -59 19
-83 -2 -16 -14 -19 -15 -15 -3 2 8 18 61 34 118 l29 102 137 0 c79 0 138 -4
138 -9z m-390 -26 c0 -16 -6 -25 -15 -25 -15 0 -21 31 -8 43 13 14 23 6 23
-18z m2077 -157 c-3 -8 -6 -5 -6 6 -1 11 2 17 5 13 3 -3 4 -12 1 -19z m845
-69 c-2 -52 1 -85 8 -95 11 -12 0 -14 -79 -14 -105 0 -106 1 -67 87 25 53 83
103 121 103 19 0 20 -5 17 -81z m-3209 13 c12 -66 9 -72 -34 -72 l-41 0 3 48
c2 37 7 48 24 53 30 8 43 0 48 -29z m175 -11 c32 -56 29 -71 -12 -71 -19 0
-38 5 -41 10 -3 6 -2 10 4 10 5 0 8 9 6 20 -2 11 0 22 6 25 15 10 10 28 -6 21
-8 -3 -15 -1 -15 3 0 8 15 18 31 20 3 1 15 -16 27 -38z m-336 -6 c-6 -34 -12
-32 -12 6 0 16 4 28 9 25 4 -3 6 -17 3 -31z m1963 15 c-7 -11 -91 -70 -100
-70 -11 0 90 77 103 79 2 1 0 -3 -3 -9z m722 -22 c-3 -7 -5 -2 -5 12 0 14 2
19 5 13 2 -7 2 -19 0 -25z m-160 -65 c-2 -16 -4 -5 -4 22 0 28 2 40 4 28 2
-13 2 -35 0 -50z m1200 0 c-2 -16 -4 -5 -4 22 0 28 2 40 4 28 2 -13 2 -35 0
-50z m-867 27 c12 -8 11 -10 -7 -10 -13 0 -23 5 -23 10 0 13 11 13 30 0z
m-163 -16 c-3 -3 -12 -4 -19 -1 -8 3 -5 6 6 6 11 1 17 -2 13 -5z m-852 -14 c3
-5 -1 -10 -9 -10 -9 0 -16 5 -16 10 0 6 4 10 9 10 6 0 13 -4 16 -10z m675 -45
c-7 -9 -15 -13 -19 -10 -3 3 1 10 9 15 21 14 24 12 10 -5z m-97 -12 c-13 -2
-33 -2 -45 0 -13 2 -3 4 22 4 25 0 35 -2 23 -4z m445 0 c-53 -2 -143 -2 -200
0 -57 1 -13 3 97 3 110 0 156 -2 103 -3z m275 0 c-13 -2 -35 -2 -50 0 -16 2
-5 4 22 4 28 0 40 -2 28 -4z m210 0 c-35 -2 -91 -2 -125 0 -35 2 -7 3 62 3 69
0 97 -1 63 -3z m144 1 c-3 -3 -12 -4 -19 -1 -8 3 -5 6 6 6 11 1 17 -2 13 -5z
m366 -1 c-24 -2 -62 -2 -85 0 -24 2 -5 4 42 4 47 0 66 -2 43 -4z m-1332 -25
c-5 -13 -5 -32 -2 -43 4 -11 6 -26 5 -32 -1 -7 -3 -50 -5 -95 l-3 -83 -5 115
c-6 122 -4 160 10 160 5 0 5 -10 0 -22z m96 -14 c-3 -3 -12 -4 -19 -1 -8 3 -5
6 6 6 11 1 17 -2 13 -5z m1303 -69 c0 -60 -3 -75 -15 -75 -9 0 -22 15 -31 33
-9 19 -31 42 -50 52 -20 10 -34 26 -34 36 0 18 -24 19 -547 22 l-548 2 613 3
612 2 0 -75z m-1250 40 c0 -8 -8 -15 -18 -15 -10 0 -23 -5 -28 -10 -17 -17
-54 -20 -54 -5 0 9 6 12 17 8 11 -4 14 -3 9 5 -4 7 -17 12 -29 12 -43 0 3 16
53 19 39 2 50 -1 50 -14z m998 -12 c-27 -2 -69 -2 -95 0 -27 2 -5 3 47 3 52 0
74 -1 48 -3z m-1091 -68 c-18 -17 -27 -19 -27 -6 0 16 34 45 38 32 2 -6 -3
-18 -11 -26z m661 -240 l-3 -249 -35 -7 c-19 -4 -35 -7 -36 -6 -6 8 -11 485
-6 493 9 14 31 21 60 20 l22 -1 -2 -250z m120 73 c0 -78 -3 -172 -6 -207 -7
-66 -24 -90 -36 -49 l-7 23 -15 -27 c-8 -16 -17 -28 -19 -28 -3 0 -5 99 -5
221 0 172 3 220 13 216 6 -2 23 5 37 15 24 19 24 19 31 -1 4 -10 8 -84 7 -163z
m111 -65 c-1 -137 -4 -241 -7 -233 -9 28 -35 50 -59 50 l-23 0 0 215 0 215 45
0 46 0 -2 -247z m106 220 c3 -14 5 -126 4 -247 -2 -182 1 -221 12 -224 12 -2
14 36 11 238 -2 132 0 240 3 240 12 0 34 -28 28 -34 -4 -3 -1 -6 5 -6 6 0 21
-20 32 -44 22 -50 24 -95 13 -319 -5 -104 -9 -134 -19 -130 -9 3 -12 -7 -11
-36 1 -28 6 -40 14 -37 17 7 24 -7 13 -24 -8 -12 -47 -15 -222 -15 l-213 0 -3
34 c-2 23 2 37 12 43 10 6 16 23 16 48 0 30 4 39 18 39 9 -1 60 0 112 1 l95 1
-3 236 c-2 130 -1 241 1 247 3 6 20 12 40 13 30 3 36 -1 42 -24z m-608 5 c7
17 40 15 47 -4 3 -9 6 -55 6 -102 0 -108 10 -192 22 -192 5 0 6 48 2 119 -4
65 -4 135 0 155 7 34 9 36 46 36 l40 0 0 -265 c0 -218 -2 -265 -14 -265 -16 0
-32 18 -39 45 -3 11 -3 -11 0 -50 8 -106 8 -108 -16 -100 -10 3 -35 6 -55 7
-20 1 -36 5 -36 10 0 4 -31 8 -70 8 -40 0 -70 -4 -70 -10 0 -5 -17 -10 -39
-10 l-38 0 -17 113 c-31 212 -43 312 -39 320 2 4 35 7 74 7 42 0 69 4 69 11 0
5 -4 7 -10 4 -15 -9 -13 140 3 153 6 5 26 9 42 8 l30 -1 0 -87 c-1 -75 2 -88
15 -88 14 0 16 12 14 80 -3 89 3 121 18 98 7 -10 11 -10 15 0z m-2504 -90 c11
-140 9 -308 -5 -308 -6 0 -8 3 -5 7 4 3 1 13 -5 22 -15 18 -13 361 1 361 4 0
11 -37 14 -82z m2327 -4 c0 -79 -2 -82 -56 -66 -19 6 -21 14 -21 75 1 37 4 67
9 67 4 0 8 -10 9 -22 0 -22 1 -22 10 2 8 20 12 22 19 10 8 -13 10 -12 10 3 0
10 5 15 10 12 6 -3 10 -40 10 -81z m-2111 -76 c1 -78 4 -145 7 -150 3 -5 7
-69 8 -141 2 -132 2 -132 26 -137 14 -3 26 -13 28 -23 3 -16 -4 -18 -64 -15
-55 2 -68 6 -70 21 -1 11 4 17 17 17 16 0 19 8 20 53 1 28 0 57 -1 62 -5 20 1
449 6 457 16 25 22 -16 23 -144z m2000 80 c-3 -87 -7 -108 -24 -108 -14 0 -32
141 -20 160 13 22 20 8 18 -37 0 -27 1 -34 3 -18 14 98 26 99 23 3z m-55 -107
c-6 -21 -9 -16 -14 34 -4 33 -4 76 -1 95 5 30 6 26 14 -34 5 -38 5 -80 1 -95z
m-67 -113 c-1 -46 -3 -11 -3 77 0 88 2 125 3 83 2 -42 2 -114 0 -160z m-2314
140 c4 -29 9 -134 12 -233 4 -99 9 -188 11 -197 5 -16 -3 -18 -70 -18 -61 0
-76 3 -76 15 0 12 -14 15 -65 15 -83 0 -85 -18 -2 -23 34 -2 0 -4 -75 -5 -137
-2 -138 -2 -139 21 0 12 -1 124 -2 249 l-2 228 201 0 202 0 5 -52z m1805 -230
c-2 -126 -6 -172 -15 -176 -10 -3 -13 35 -13 166 0 93 3 172 7 175 20 20 23
-8 21 -165z m262 -8 c0 -107 -4 -170 -10 -170 -6 0 -10 63 -10 170 0 107 4
170 10 170 6 0 10 -63 10 -170z m-1840 -52 c0 -9 -4 -20 -10 -23 -6 -4 -10 9
-10 32 0 28 3 34 10 23 5 -8 10 -23 10 -32z m1370 38 c0 -3 -4 -8 -10 -11 -5
-3 -10 -1 -10 4 0 6 5 11 10 11 6 0 10 -2 10 -4z m-138 -36 c18 -16 29 -29 23
-29 -15 0 -82 58 -68 59 7 0 27 -13 45 -30z m1726 13 c2 -8 -5 -13 -17 -13
-21 0 -35 13 -24 24 10 10 36 3 41 -11z m-2961 -115 c0 -21 -6 -38 -12 -38
-10 0 -11 25 -5 95 2 28 18 -25 17 -57z m3210 -10 c-3 -8 -6 -5 -6 6 -1 11 2
17 5 13 3 -3 4 -12 1 -19z m-2002 -38 c3 -5 1 -10 -4 -10 -6 0 -11 5 -11 10 0
6 2 10 4 10 3 0 8 -4 11 -10z m1248 -7 c-13 -2 -33 -2 -45 0 -13 2 -3 4 22 4
25 0 35 -2 23 -4z m-1783 -33 c0 -5 -4 -10 -10 -10 -5 0 -10 5 -10 10 0 6 5
10 10 10 6 0 10 -4 10 -10z m1443 -27 c-7 -2 -19 -2 -25 0 -7 3 -2 5 12 5 14
0 19 -2 13 -5z m788 -6 c-359 -6 -536 -6 -543 1 -7 7 166 10 533 10 l544 -1
-534 -10z m606 -44 c-3 -10 -5 -4 -5 12 0 17 2 24 5 18 2 -7 2 -21 0 -30z
m-1324 10 c-13 -2 -33 -2 -45 0 -13 2 -3 4 22 4 25 0 35 -2 23 -4z m900 0
c-116 -2 -310 -2 -430 0 -120 1 -24 2 212 2 237 0 335 -1 218 -2z m350 0 c-13
-2 -35 -2 -50 0 -16 2 -5 4 22 4 28 0 40 -2 28 -4z m-13 -23 c20 -6 21 -8 5
-8 -11 0 -29 3 -40 8 -25 11 1 11 35 0z m-3870 -140 c8 -5 11 -10 5 -10 -5 0
-17 5 -25 10 -8 5 -10 10 -5 10 6 0 17 -5 25 -10z m230 -54 c0 -2 -9 -6 -20
-9 -11 -3 -18 -1 -14 4 5 9 34 13 34 5z m1966 -37 c3 -5 0 -70 -7 -143 l-12
-134 -48 20 c-44 19 -47 22 -38 45 11 31 12 70 0 77 -9 6 -51 7 -116 3 l-40
-2 -1 -55 c-2 -78 -3 -80 -15 -80 -6 0 -24 -9 -40 -21 -35 -25 -34 -37 -17
159 l12 143 158 -2 c87 0 161 -5 164 -10z m-2726 -62 c0 -5 -4 -5 -10 -2 -5 3
-10 14 -10 23 0 15 2 15 10 2 5 -8 10 -19 10 -23z m2578 -85 c-13 -5 -15 -11
-8 -22 9 -13 11 -13 19 0 18 27 24 -15 7 -47 -21 -42 -42 -56 -71 -49 -40 10
-53 106 -14 106 6 0 7 -5 3 -11 -4 -7 -1 -10 7 -7 8 3 15 10 15 16 1 7 2 14 3
17 0 3 13 5 29 4 20 0 22 -2 10 -7z m-2508 -22 c0 -5 -4 -10 -10 -10 -5 0 -10
5 -10 10 0 6 5 10 10 10 6 0 10 -4 10 -10z m329 -102 c9 -23 6 -38 -7 -38 -4
0 -13 14 -19 30 -9 25 -9 30 3 30 8 0 18 -10 23 -22z m118 7 c0 -8 -6 -15 -14
-15 -7 0 -13 7 -13 15 0 8 6 15 13 15 8 0 14 -7 14 -15z m-547 -15 c12 -8 12
-10 -5 -10 -11 0 -27 5 -35 10 -12 8 -12 10 5 10 11 0 27 -5 35 -10z m2573 -2
c20 4 21 -7 5 -43 -14 -32 -24 -32 -41 3 -16 30 -12 56 6 45 7 -4 20 -6 30 -5z
m-2186 -30 c-3 -8 -6 -5 -6 6 -1 11 2 17 5 13 3 -3 4 -12 1 -19z m-104 -85
c-7 -2 -19 -2 -25 0 -7 3 -2 5 12 5 14 0 19 -2 13 -5z m3480 -70 c-7 -2 -21
-2 -30 0 -10 3 -4 5 12 5 17 0 24 -2 18 -5z m342 -3 c3 -5 -1 -10 -10 -10 -9
0 -13 5 -10 10 3 6 8 10 10 10 2 0 7 -4 10 -10z m-60 -11 c13 -5 -30 -6 -115
-3 -74 4 -137 8 -139 10 -9 9 235 2 254 -7z m148 -76 c-79 -2 -207 -2 -285 0
-79 1 -15 3 142 3 157 0 221 -2 143 -3z m-3128 -192 c17 -7 16 -9 -13 -16 -18
-4 -36 -4 -39 -1 -4 3 5 6 18 6 19 0 21 2 9 10 -18 11 -3 12 25 1z m273 2
c-10 -2 -26 -2 -35 0 -10 3 -2 5 17 5 19 0 27 -2 18 -5z m874 -15 c141 -3 181
-8 166 -23 -2 -3 -15 -5 -29 -6 -49 -2 -573 11 -576 15 -8 8 144 21 212 19 39
-2 141 -4 227 -5z m1602 6 c19 -7 9 -34 -13 -34 -13 0 -13 2 -2 9 11 7 10 11
-5 20 -20 11 -6 15 20 5z m106 -4 c0 -5 -9 -10 -21 -10 -11 0 -17 5 -14 10 3
6 13 10 21 10 8 0 14 -4 14 -10z m-2487 -7 c-13 -2 -33 -2 -45 0 -13 2 -3 4
22 4 25 0 35 -2 23 -4z m270 -5 c-15 -7 -46 -7 -100 -1 l-78 10 100 1 c77 0
95 -2 78 -10z m2224 -14 c-3 -3 -12 -4 -19 -1 -8 3 -5 6 6 6 11 1 17 -2 13 -5z
m406 -21 c-46 -2 -120 -2 -165 0 -46 1 -9 3 82 3 91 0 128 -2 83 -3z m-743 -7
c0 -3 -4 -8 -10 -11 -5 -3 -10 -1 -10 4 0 6 5 11 10 11 6 0 10 -2 10 -4z m36
-58 c3 -11 2 -24 -4 -30 -14 -14 -60 1 -67 23 -4 10 -12 20 -18 20 -7 1 2 4
18 8 41 9 63 3 71 -21z m144 22 c0 -5 -14 -10 -31 -10 -17 0 -28 4 -24 10 3 6
17 10 31 10 13 0 24 -4 24 -10z m103 3 c-7 -3 -13 -12 -14 -21 0 -11 -2 -12
-6 -4 -2 6 -13 12 -24 12 -36 0 -19 16 19 17 20 0 31 -2 25 -4z m60 -13 c3
-11 1 -18 -4 -14 -5 3 -9 12 -9 20 0 20 7 17 13 -6z m22 10 c3 -5 1 -10 -4
-10 -6 0 -11 5 -11 10 0 6 2 10 4 10 3 0 8 -4 11 -10z m-1185 -10 c0 -5 -5
-10 -11 -10 -5 0 -7 5 -4 10 3 6 8 10 11 10 2 0 4 -4 4 -10z m-533 -21 c1 -8
4 -88 6 -177 3 -143 2 -165 -12 -169 -33 -10 -77 -38 -98 -62 l-22 -25 -3 225
-3 226 65 -2 c47 -2 66 -6 67 -16z m328 -13 c38 -29 85 -44 85 -26 0 16 62 9
68 -8 3 -10 -5 -13 -32 -11 -27 3 -43 -3 -64 -21 -16 -14 -29 -29 -30 -35 -1
-5 -11 -12 -23 -13 -13 -2 -32 -10 -43 -17 -12 -7 -50 -13 -85 -14 -56 -2 -63
0 -57 15 4 10 1 21 -6 26 -8 5 1 8 25 8 30 0 37 4 37 19 0 12 9 21 25 25 16 4
25 13 25 27 0 21 19 48 34 49 5 0 24 -11 41 -24z m215 -6 c-36 -31 -50 -37
-50 -20 0 6 6 10 13 10 8 0 22 9 32 20 10 11 23 20 29 20 6 -1 -5 -14 -24 -30z
m1105 0 c3 -5 -1 -10 -9 -10 -9 0 -16 5 -16 10 0 6 4 10 9 10 6 0 13 -4 16
-10z m-272 -35 c-3 -9 -8 -14 -10 -11 -3 3 -2 9 2 15 9 16 15 13 8 -4z m-44
-4 c8 -5 16 -29 18 -53 3 -37 2 -40 -9 -23 -7 11 -13 28 -13 37 0 9 -9 24 -20
32 -15 12 -16 15 -5 16 8 0 21 -4 29 -9z m-1172 -168 c-3 -10 -5 -2 -5 17 0
19 2 27 5 18 2 -10 2 -26 0 -35z m67 38 c19 -7 19 -8 -2 -13 -11 -3 -29 0 -39
8 -17 13 -17 13 2 13 11 0 29 -4 39 -8z m1956 -81 c-20 -13 -47 -13 -55 0 -4
6 9 10 32 10 28 0 34 -3 23 -10z m-2264 -200 c22 0 17 -16 -16 -52 l-30 -32 0
48 c0 40 3 47 16 42 9 -3 22 -6 30 -6z m61 -222 c-3 -8 -6 -5 -6 6 -1 11 2 17
5 13 3 -3 4 -12 1 -19z"/>
<path d="M2190 3673 c-24 -8 -40 -35 -40 -65 0 -32 13 -36 32 -10 9 12 26 17
59 16 56 -1 65 -6 72 -44 8 -36 37 -31 37 7 0 72 -85 123 -160 96z"/>
<path d="M2190 3560 c0 -5 5 -10 10 -10 6 0 10 5 10 10 0 6 -4 10 -10 10 -5 0
-10 -4 -10 -10z"/>
<path d="M2270 3560 c-12 -8 -10 -10 8 -10 13 0 20 4 17 10 -7 12 -6 12 -25 0z"/>
<path d="M2235 3480 c3 -5 10 -10 16 -10 5 0 9 5 9 10 0 6 -7 10 -16 10 -8 0
-12 -4 -9 -10z"/>
<path d="M4216 3643 l-29 -5 6 -96 c4 -53 7 -129 7 -169 0 -60 3 -71 15 -67
10 4 15 0 15 -11 0 -11 -5 -15 -15 -11 -9 3 -15 0 -15 -9 0 -8 9 -15 20 -15
22 0 20 -20 25 238 1 83 2 151 1 151 0 -1 -14 -4 -30 -6z m5 -96 c-4 -87 -11
-85 -11 3 0 40 3 70 7 67 3 -4 5 -35 4 -70z"/>
<path d="M4588 3163 c7 -3 16 -2 19 1 4 3 -2 6 -13 5 -11 0 -14 -3 -6 -6z"/>
<path d="M4381 2532 c-1 -36 21 -41 27 -6 2 15 1 16 -7 5 -7 -11 -10 -9 -14
10 -3 19 -5 17 -6 -9z"/>
<path d="M4363 2483 c9 -2 23 -2 30 0 6 3 -1 5 -18 5 -16 0 -22 -2 -12 -5z"/>
<path d="M4058 2453 c6 -2 18 -2 25 0 6 3 1 5 -13 5 -14 0 -19 -2 -12 -5z"/>
<path d="M4218 2453 c7 -3 16 -2 19 1 4 3 -2 6 -13 5 -11 0 -14 -3 -6 -6z"/>
<path d="M3598 2766 c-10 -7 -18 -25 -18 -40 0 -30 10 -34 27 -8 14 23 71 18
90 -7 11 -14 12 -13 13 6 0 26 -44 63 -74 63 -11 0 -29 -7 -38 -14z"/>
<path d="M3642 2643 c-17 -7 -5 -23 19 -23 10 0 19 7 19 15 0 15 -14 18 -38 8z"/>
<path d="M3600 2565 c-2 -5 -1 -14 0 -20 2 -5 6 -26 10 -45 l8 -35 0 35 c1 33
-15 86 -18 65z"/>
<path d="M3739 2553 c10 -20 11 -25 11 -50 0 -9 3 -14 6 -10 10 9 -5 77 -17
77 -6 0 -6 -6 0 -17z"/>
<path d="M3510 2910 c8 -5 20 -10 25 -10 6 0 3 5 -5 10 -8 5 -19 10 -25 10 -5
0 -3 -5 5 -10z"/>
<path d="M758 2884 c-42 -24 -48 -31 -48 -61 0 -18 -5 -42 -12 -53 -10 -15
-10 -27 0 -52 6 -18 9 -43 6 -55 -6 -23 9 -32 21 -13 3 6 19 10 35 10 35 0 49
19 27 35 -19 14 -37 57 -37 90 0 36 26 55 75 55 38 0 46 -4 62 -30 9 -16 23
-30 29 -30 15 0 7 -35 -12 -51 -31 -25 -6 -65 46 -74 l36 -6 -7 58 c-4 32 -11
72 -16 88 -6 17 -8 35 -6 42 6 18 -70 64 -114 69 -29 4 -50 -2 -85 -22z"/>
<path d="M775 2790 c3 -5 11 -10 16 -10 6 0 7 5 4 10 -3 6 -11 10 -16 10 -6 0
-7 -4 -4 -10z"/>
<path d="M2758 2011 c-36 -32 -32 -52 6 -31 14 7 32 10 40 7 19 -8 76 2 76 13
0 8 -34 26 -67 35 -15 4 -31 -2 -55 -24z"/>
<path d="M1300 4430 c0 -27 5 -50 10 -50 6 0 10 23 10 50 0 28 -4 50 -10 50
-5 0 -10 -22 -10 -50z"/>
<path d="M1350 4360 c0 -16 4 -30 8 -30 5 0 7 14 4 30 -2 17 -6 30 -8 30 -2 0
-4 -13 -4 -30z"/>
<path d="M655 4353 c-37 -9 -36 -20 2 -49 31 -24 46 -29 87 -27 27 1 50 4 51
5 1 2 5 20 9 41 l7 37 -68 -1 c-37 -1 -77 -3 -88 -6z"/>
<path d="M1352 4090 c0 -19 2 -27 5 -17 2 9 2 25 0 35 -3 9 -5 1 -5 -18z"/>
<path d="M1311 3955 c0 -77 -4 -157 -7 -177 -5 -29 -3 -38 7 -38 11 0 13 27
11 147 -4 205 -8 235 -11 68z"/>
<path d="M1391 3878 c-1 -132 0 -136 19 -131 24 6 27 33 4 33 -15 0 -16 10
-12 78 2 42 1 95 -3 117 -4 24 -7 -14 -8 -97z"/>
<path d="M1208 3923 c-2 -4 -2 -50 0 -100 3 -91 4 -93 28 -93 15 0 24 6 24 15
0 8 5 15 10 15 6 0 10 7 10 15 0 8 -6 14 -12 13 -9 -2 -13 17 -14 67 -1 62 -3
70 -22 73 -11 2 -22 0 -24 -5z"/>
<path d="M1347 3765 c-4 -8 -2 -17 3 -20 6 -4 10 3 10 14 0 25 -6 27 -13 6z"/>
<path d="M2045 2681 c-9 -16 8 -18 45 -5 l35 13 -37 0 c-20 1 -39 -3 -43 -8z"/>
<path d="M2060 2645 c0 -12 7 -15 25 -13 14 2 26 8 26 13 0 6 -12 11 -26 13
-18 2 -25 -1 -25 -13z"/>
<path d="M2238 2634 c-5 -4 -8 -16 -8 -28 0 -14 3 -17 11 -9 6 6 9 19 7 28 -1
9 -6 13 -10 9z"/>
<path d="M1818 2303 c7 -3 16 -2 19 1 4 3 -2 6 -13 5 -11 0 -14 -3 -6 -6z"/>
<path d="M1844 2260 c0 -11 6 -20 12 -20 7 0 10 8 7 20 -3 11 -8 20 -12 20 -4
0 -7 -9 -7 -20z"/>
<path d="M2090 2270 c0 -5 5 -10 10 -10 6 0 10 5 10 10 0 6 -4 10 -10 10 -5 0
-10 -4 -10 -10z"/>
<path d="M1890 2260 c0 -5 9 -10 21 -10 11 0 17 5 14 10 -3 6 -13 10 -21 10
-8 0 -14 -4 -14 -10z"/>
<path d="M2343 1732 c0 -57 -3 -105 -6 -108 -3 -3 3 -23 14 -43 14 -28 25 -37
42 -35 12 1 30 3 40 3 14 1 13 7 -13 43 -16 22 -30 48 -30 56 0 9 -8 24 -17
35 -12 12 -20 43 -24 86 -6 59 -6 55 -6 -37z"/>
<path d="M1955 1790 c33 -40 45 -52 45 -43 0 5 -15 22 -32 39 -26 23 -29 24
-13 4z"/>
<path d="M1910 1786 c0 -3 9 -10 20 -16 11 -6 20 -8 20 -6 0 3 -9 10 -20 16
-11 6 -20 8 -20 6z"/>
<path d="M1790 1685 c7 -9 15 -13 17 -11 7 7 -7 26 -19 26 -6 0 -6 -6 2 -15z"/>
<path d="M1746 1662 c-2 -4 -1 -14 5 -22 5 -8 9 -12 9 -7 0 4 12 0 28 -10 24
-16 26 -16 14 -1 -8 10 -22 20 -33 23 -11 4 -17 11 -14 16 4 5 4 9 1 9 -3 0
-7 -4 -10 -8z"/>
<path d="M2518 1500 l4 -40 45 0 c37 0 44 3 39 16 -3 9 -9 27 -12 40 -5 20
-12 24 -43 24 l-37 0 4 -40z"/>
<path d="M673 1473 c15 -2 39 -2 55 0 15 2 2 4 -28 4 -30 0 -43 -2 -27 -4z"/>
<path d="M778 1473 c7 -3 16 -2 19 1 4 3 -2 6 -13 5 -11 0 -14 -3 -6 -6z"/>
<path d="M433 1193 c9 -2 23 -2 30 0 6 3 -1 5 -18 5 -16 0 -22 -2 -12 -5z"/>
<path d="M480 1191 c0 -5 -10 -12 -22 -14 -13 -2 2 -5 33 -6 31 0 77 -4 103
-7 63 -9 58 9 -7 24 -63 14 -107 16 -107 3z"/>
<path d="M1075 1180 c-4 -6 7 -10 24 -10 17 0 31 5 31 10 0 6 -11 10 -24 10
-14 0 -28 -4 -31 -10z"/>
<path d="M1281 1174 c0 -11 3 -14 6 -6 3 7 2 16 -1 19 -3 4 -6 -2 -5 -13z"/>
<path d="M385 1120 c3 -5 8 -10 11 -10 2 0 4 5 4 10 0 6 -5 10 -11 10 -5 0 -7
-4 -4 -10z"/>
<path d="M1105 1120 c-17 -7 -15 -9 13 -9 17 -1 32 4 32 9 0 12 -17 12 -45 0z"/>
<path d="M506 1111 c-5 -8 61 -11 234 -11 270 0 317 -7 355 -52 23 -27 25 -37
25 -134 0 -58 -5 -114 -10 -125 -13 -24 2 -25 23 -1 13 15 17 39 17 111 0 119
-27 184 -84 205 -35 12 -553 19 -560 7z"/>
<path d="M1590 1100 c-10 -6 74 -10 245 -11 290 -1 303 -3 338 -70 15 -28 17
-51 13 -124 -2 -49 -7 -102 -11 -118 -6 -23 -5 -26 9 -21 25 10 38 73 35 167
-3 68 -8 91 -25 114 -44 59 -56 62 -334 67 -156 4 -261 2 -270 -4z"/>
<path d="M2263 1095 c-3 -9 -3 -18 -1 -21 3 -3 8 4 11 16 6 23 -1 27 -10 5z"/>
<path d="M402 1084 c-10 -10 -12 -27 -7 -51 8 -43 13 -39 24 20 9 49 5 56 -17
31z"/>
<path d="M1321 1074 c0 -11 3 -14 6 -6 3 7 2 16 -1 19 -3 4 -6 -2 -5 -13z"/>
<path d="M500 1063 c-28 -7 -44 -47 -48 -129 -3 -62 0 -88 12 -112 32 -61 44
-64 284 -69 119 -2 235 0 257 4 l40 7 -50 8 c-27 5 -69 10 -92 12 -62 6 -84
22 -77 51 5 18 2 25 -9 25 -10 0 -13 7 -10 20 8 29 -6 25 -17 -5 -5 -14 -15
-24 -22 -23 -7 2 -13 -6 -13 -16 0 -11 -5 -21 -11 -23 -8 -3 -12 17 -13 58 -1
33 -6 68 -12 78 -8 12 -9 7 -5 -21 6 -46 -7 -57 -24 -20 -14 27 -14 27 -21
-23 -13 -100 -58 -146 -53 -53 2 28 -1 57 -7 65 -9 9 -8 17 1 28 11 13 8 15
-19 15 -24 0 -31 4 -31 20 0 11 -4 20 -10 20 -5 0 -10 -9 -10 -20 0 -11 4 -20
10 -20 6 0 9 -30 8 -72 -2 -40 -4 -65 -6 -55 -2 9 -10 17 -19 17 -13 0 -13 -3
-3 -15 21 -25 1 -31 -23 -7 -19 19 -22 35 -25 115 -3 83 -1 94 18 115 24 25
24 30 0 25z"/>
<path d="M573 1045 c14 -30 28 -31 51 -6 16 17 15 19 -15 25 -47 9 -48 8 -36
-19z"/>
<path d="M683 1053 c9 -2 23 -2 30 0 6 3 -1 5 -18 5 -16 0 -22 -2 -12 -5z"/>
<path d="M1542 1025 c-12 -15 -23 -48 -26 -83 -14 -131 21 -192 111 -192 55 0
56 18 1 22 -65 5 -83 37 -83 148 1 72 4 93 20 109 10 12 13 21 7 21 -6 0 -19
-11 -30 -25z"/>
<path d="M2261 1014 c0 -11 3 -14 6 -6 3 7 2 16 -1 19 -3 4 -6 -2 -5 -13z"/>
<path d="M0 1001 c0 -6 5 -13 10 -16 5 -3 10 1 10 9 0 9 -4 16 -10 16 -5 0
-10 -4 -10 -9z"/>
<path d="M1287 993 c-4 -3 -7 -11 -7 -17 0 -6 5 -5 12 2 6 6 9 14 7 17 -3 3
-9 2 -12 -2z"/>
<path d="M1338 970 c-18 -45 -26 -80 -18 -80 16 0 31 39 28 68 -3 18 -6 22
-10 12z"/>
<path d="M360 900 c0 -31 4 -40 17 -40 13 0 14 -3 5 -12 -16 -16 -15 -44 2
-93 11 -31 16 -36 21 -22 7 16 -10 162 -22 193 -10 28 -23 13 -23 -26z"/>
<path d="M750 910 c0 -5 5 -10 11 -10 5 0 7 5 4 10 -3 6 -8 10 -11 10 -2 0 -4
-4 -4 -10z"/>
<path d="M1337 806 c-4 -10 -5 -21 -2 -24 9 -9 17 6 13 25 -3 17 -4 17 -11 -1z"/>
<path d="M1798 753 c23 -2 61 -2 85 0 23 2 4 4 -43 4 -47 0 -66 -2 -42 -4z"/>
<path d="M2048 753 c6 -2 18 -2 25 0 6 3 1 5 -13 5 -14 0 -19 -2 -12 -5z"/>
<path d="M140 721 c0 -11 5 -23 10 -26 6 -4 10 5 10 19 0 14 -4 26 -10 26 -5
0 -10 -9 -10 -19z"/>
<path d="M2550 720 c0 -6 41 -10 104 -10 59 0 108 4 111 10 4 6 -33 10 -104
10 -67 0 -111 -4 -111 -10z"/>
<path d="M2828 723 c18 -2 45 -2 60 0 15 2 0 4 -33 4 -33 0 -45 -2 -27 -4z"/>
<path d="M3182 717 c92 -5 228 -5 365 0 l218 10 -365 0 c-326 0 -349 -1 -218
-10z"/>
<path d="M3880 718 c0 -4 9 -8 20 -8 11 0 20 4 20 9 0 6 -9 9 -20 8 -11 -1
-20 -5 -20 -9z"/>
<path d="M4045 720 c-7 -12 22 -12 50 0 17 7 15 9 -12 9 -17 1 -35 -3 -38 -9z"/>
<path d="M4383 723 c15 -2 37 -2 50 0 12 2 0 4 -28 4 -27 0 -38 -2 -22 -4z"/>
<path d="M4518 723 c23 -2 61 -2 85 0 23 2 4 4 -43 4 -47 0 -66 -2 -42 -4z"/>
<path d="M4738 723 c12 -2 32 -2 45 0 12 2 2 4 -23 4 -25 0 -35 -2 -22 -4z"/>
<path d="M421 710 c-26 -6 -41 -30 -19 -30 7 0 36 9 63 19 49 19 49 19 15 18
-19 0 -46 -4 -59 -7z"/>
<path d="M575 711 c-3 -5 3 -12 12 -14 13 -3 11 -5 -7 -7 -29 -4 98 -20 150
-20 19 0 37 5 38 10 5 13 32 13 32 0 0 -11 73 -14 83 -4 3 3 3 12 0 20 -4 11
-29 14 -117 13 -61 -1 -100 -4 -86 -6 29 -5 52 -23 29 -23 -7 0 -32 5 -53 11
-29 8 -36 13 -25 20 10 6 5 9 -18 9 -17 0 -34 -4 -38 -9z"/>
<path d="M1318 680 c-7 -24 -3 -38 8 -28 3 4 4 17 2 30 l-3 23 -7 -25z"/>
<path d="M1467 674 c-3 -3 -3 -13 0 -22 5 -11 2 -14 -10 -9 -22 8 -21 5 2 -21
21 -25 46 -29 54 -8 4 10 1 13 -8 10 -9 -4 -12 0 -9 13 5 19 -18 48 -29 37z"/>
<path d="M1639 663 c-13 -15 -12 -15 11 -3 34 17 36 20 18 20 -9 0 -22 -7 -29
-17z"/>
<path d="M380 640 c0 -5 5 -10 10 -10 6 0 10 5 10 10 0 6 -4 10 -10 10 -5 0
-10 -4 -10 -10z"/>
<path d="M662 638 c3 -7 15 -15 27 -16 16 -3 22 1 19 10 -3 7 -15 15 -27 16
-16 3 -22 -1 -19 -10z"/>
<path d="M1745 630 c3 -5 17 -10 31 -10 13 0 24 5 24 10 0 6 -14 10 -31 10
-17 0 -28 -4 -24 -10z"/>
<path d="M436 615 c-18 -14 -13 -15 52 -15 41 0 72 4 72 10 0 6 18 10 40 10
22 0 40 -4 40 -10 0 -5 15 -10 33 -10 l32 1 -34 14 c-46 20 -209 20 -235 0z"/>
<path d="M830 600 c-12 -8 -10 -10 8 -10 13 0 20 4 17 10 -7 12 -6 12 -25 0z"/>
<path d="M888 603 c7 -3 16 -2 19 1 4 3 -2 6 -13 5 -11 0 -14 -3 -6 -6z"/>
<path d="M9 591 c18 -11 112 -11 105 0 -3 5 -31 9 -62 9 -36 0 -52 -3 -43 -9z"/>
<path d="M225 590 c-3 -5 -1 -10 4 -10 6 0 11 5 11 10 0 6 -2 10 -4 10 -3 0
-8 -4 -11 -10z"/>
<path d="M397 573 c-15 -15 -3 -18 78 -21 70 -2 85 0 85 13 0 12 -15 15 -78
15 -43 0 -82 -3 -85 -7z"/>
<path d="M650 570 c20 -13 40 -13 40 0 0 6 -12 10 -27 10 -22 0 -25 -2 -13
-10z"/>
<path d="M728 573 c6 -2 18 -2 25 0 6 3 1 5 -13 5 -14 0 -19 -2 -12 -5z"/>
<path d="M213 551 c3 -14 -9 -16 -102 -15 -94 1 -96 0 -18 -3 65 -3 87 -7 87
-17 0 -8 -7 -17 -16 -20 -8 -3 -12 -2 -9 4 4 6 -18 10 -59 10 -35 0 -71 3 -80
6 -13 5 -15 -5 -15 -65 0 -60 4 -73 21 -85 32 -23 50 -140 28 -191 -6 -14 -8
1 -8 45 0 65 -12 112 -31 125 -8 4 -11 -48 -11 -169 0 -167 1 -176 19 -176 12
0 21 8 24 22 l4 23 2 -22 c1 -23 4 -23 121 -23 l120 0 0 94 c0 127 -9 186 -26
179 -10 -4 -14 4 -14 28 0 19 -5 41 -10 49 -7 11 -10 -7 -11 -60 l-2 -75 -8
80 c-5 51 -5 81 1 83 13 5 13 32 0 32 -6 0 -5 6 2 14 11 12 14 9 19 -18 6 -28
6 -27 8 12 1 34 -4 48 -21 64 -13 11 -17 16 -9 12 10 -5 13 -3 8 8 -3 9 0 21
6 27 6 6 7 11 2 11 -5 0 0 6 10 14 18 13 17 14 -9 14 -21 0 -27 -5 -23 -17z
m-133 -91 c0 -12 -8 -12 -35 0 -18 8 -17 9 8 9 15 1 27 -3 27 -9z m33 -19 c5
-22 -1 -33 -14 -25 -12 7 -12 44 0 44 5 0 11 -9 14 -19z m-38 -11 c8 -13 -5
-13 -25 0 -13 8 -13 10 2 10 9 0 20 -4 23 -10z m1 -50 c0 -21 -11 -17 -26 10
-8 15 -6 17 8 13 10 -2 18 -13 18 -23z m194 -190 c0 -27 -4 -50 -10 -50 -11 0
-14 83 -3 93 12 12 13 8 13 -43z m-218 -80 c-6 -39 -12 -39 -12 0 0 17 4 30 8
30 5 0 7 -14 4 -30z m55 -72 c-2 -13 -4 -3 -4 22 0 25 2 35 4 23 2 -13 2 -33
0 -45z m173 -4 c0 -14 -4 -23 -10 -19 -5 3 -10 15 -10 26 0 10 5 19 10 19 6 0
10 -12 10 -26z"/>
<path d="M1421 566 c10 -8 129 -13 123 -5 -3 5 -33 9 -66 9 -34 0 -59 -2 -57
-4z"/>
<path d="M306 518 c4 -24 11 -215 15 -405 2 -87 6 -113 17 -113 10 0 12 20 9
98 -3 53 -10 129 -16 169 -5 39 -8 89 -4 110 8 51 7 94 -2 116 -6 14 -2 17 26
17 22 0 29 -3 21 -8 -17 -11 -4 -42 14 -35 8 3 14 0 14 -6 0 -6 8 -11 18 -11
14 0 15 2 2 10 -11 7 -7 10 19 10 32 0 33 -1 18 -18 -9 -10 -13 -23 -8 -30 4
-7 5 -104 3 -217 l-4 -205 255 0 c195 0 257 3 260 13 4 10 6 10 6 0 1 -9 20
-13 61 -13 l59 0 0 120 c-1 94 -4 120 -14 120 -8 0 -15 14 -18 33 -3 23 -4 19
-5 -18 -2 -36 -5 -46 -13 -38 -7 7 -12 22 -13 35 -1 19 -7 23 -33 25 -18 1
-33 -3 -33 -8 0 -5 6 -9 14 -9 15 0 21 -76 6 -85 -8 -5 -25 42 -22 58 4 16
-20 48 -41 57 -16 6 -17 9 -6 9 14 1 35 29 27 36 -12 10 -110 35 -117 31 -11
-7 -61 14 -61 26 0 9 14 11 23 2 3 -3 62 -6 129 -5 113 2 127 0 151 -19 50
-40 57 -66 57 -225 0 -122 2 -145 15 -145 13 0 15 23 15 147 0 217 -24 254
-170 267 -100 8 -437 9 -475 2 -23 -5 -26 -4 -10 3 17 8 18 10 3 10 -12 1 -18
9 -18 26 0 24 3 25 63 27 l62 2 -60 3 c-33 2 -63 7 -67 11 -8 8 43 9 467 13
l290 2 2 -184 c1 -101 3 -217 3 -256 0 -66 2 -73 20 -73 18 0 20 7 20 69 0 38
3 77 7 87 4 12 3 15 -5 10 -9 -5 -12 38 -12 174 0 136 -3 182 -12 185 -7 2
-225 6 -484 10 l-471 6 3 -23z m317 -5 c-13 -2 -33 -2 -45 0 -13 2 -3 4 22 4
25 0 35 -2 23 -4z m108 -122 c-11 -7 -10 -10 5 -14 10 -2 2 -5 -18 -6 -21 0
-38 4 -38 9 0 6 -9 10 -21 10 -11 0 -18 -4 -15 -9 4 -5 -21 -11 -55 -13 -33
-1 -63 0 -66 5 -2 4 5 7 16 7 12 0 21 5 21 10 0 6 37 10 93 10 57 0 87 -4 78
-9z m239 -261 c0 -5 -5 -10 -11 -10 -5 0 -7 5 -4 10 3 6 8 10 11 10 2 0 4 -4
4 -10z"/>
<path d="M2361 524 c0 -11 3 -14 6 -6 3 7 2 16 -1 19 -3 4 -6 -2 -5 -13z"/>
<path d="M4668 523 c7 -3 16 -2 19 1 4 3 -2 6 -13 5 -11 0 -14 -3 -6 -6z"/>
<path d="M2663 513 c9 -2 23 -2 30 0 6 3 -1 5 -18 5 -16 0 -22 -2 -12 -5z"/>
<path d="M3578 513 c34 -2 90 -2 125 0 34 2 6 3 -63 3 -69 0 -97 -1 -62 -3z"/>
<path d="M3803 513 c15 -2 39 -2 55 0 15 2 2 4 -28 4 -30 0 -43 -2 -27 -4z"/>
<path d="M3948 513 c7 -3 16 -2 19 1 4 3 -2 6 -13 5 -11 0 -14 -3 -6 -6z"/>
<path d="M4350 260 c0 -167 4 -260 10 -260 12 0 10 -31 16 235 2 127 6 242 9
258 4 22 1 27 -15 27 -19 0 -20 -8 -20 -260z"/>
<path d="M4498 513 c12 -2 32 -2 45 0 12 2 2 4 -23 4 -25 0 -35 -2 -22 -4z"/>
<path d="M3356 413 c-10 -136 -10 -123 -8 -275 2 -115 4 -138 17 -138 12 0 15
19 17 108 5 280 3 402 -8 402 -7 0 -14 -38 -18 -97z"/>
<path d="M2606 475 c-3 -8 -1 -15 5 -15 6 0 7 -4 4 -10 -8 -13 45 -13 65 0 12
8 12 10 -3 16 -9 3 -24 4 -31 1 -10 -4 -13 -1 -9 9 3 8 -1 14 -10 14 -8 0 -17
-7 -21 -15z"/>
<path d="M4500 470 c0 -5 5 -10 11 -10 5 0 7 5 4 10 -3 6 -8 10 -11 10 -2 0
-4 -4 -4 -10z"/>
<path d="M1460 449 c0 -5 5 -9 10 -9 6 0 10 -8 10 -18 0 -12 13 -23 35 -32 39
-15 43 -25 18 -53 -15 -16 -18 -44 -21 -178 -3 -157 -3 -159 18 -159 18 0 21
5 19 37 -4 67 1 157 9 149 8 -9 9 -14 11 -56 2 -51 26 -15 28 41 1 46 -8 62
-22 39 -13 -22 -25 -8 -25 29 0 28 6 43 23 55 15 12 17 16 5 12 -22 -7 -24 19
-3 28 8 3 15 17 15 32 l0 26 169 -3 c93 -2 172 -6 174 -9 3 -3 1 -30 -4 -60
-5 -30 -5 -56 0 -58 4 -1 6 -14 3 -27 -2 -14 0 -25 5 -25 14 0 33 -47 27 -65
-8 -20 -20 -19 -42 5 -25 27 -38 12 -45 -55 -3 -27 -9 -60 -12 -72 -7 -21 -4
-23 30 -23 35 0 37 1 31 26 -6 24 -6 25 9 10 9 -9 25 -16 35 -16 10 0 22 -5
25 -10 8 -14 65 -13 65 1 0 6 -7 9 -15 5 -10 -4 -16 3 -20 22 -10 49 -28 97
-39 105 -6 5 -1 5 12 2 30 -9 28 4 -9 44 -29 32 -34 56 -6 33 8 -7 17 -9 20
-5 4 3 7 1 7 -5 0 -7 7 -12 16 -12 10 0 14 6 11 14 -3 8 -3 17 0 20 4 3 8 20
10 38 2 17 10 44 17 60 8 15 10 28 5 28 -17 0 -9 19 10 25 29 9 67 -11 90 -48
19 -31 21 -49 21 -186 0 -131 2 -151 16 -151 14 0 15 19 12 158 -3 156 -3 159
-31 195 -15 20 -36 41 -46 47 -10 5 -69 13 -130 16 -62 4 -106 11 -99 15 7 4
10 11 6 14 -7 8 -34 9 -145 7 -68 -2 -92 -5 -89 -14 1 -7 1 -10 -1 -5 -3 4
-23 6 -46 6 -41 -1 -41 -2 -12 -10 l30 -8 -30 4 c-39 5 -86 15 -105 23 -27 10
-60 11 -60 1z m300 -19 c0 -5 -11 -10 -24 -10 -14 0 -28 5 -31 10 -4 6 7 10
24 10 17 0 31 -4 31 -10z m240 -140 c0 -11 6 -20 13 -20 8 0 7 -3 -3 -10 -10
-6 -21 -3 -38 13 -21 20 -22 22 -5 28 29 12 33 10 33 -11z"/>
<path d="M1638 453 c7 -3 16 -2 19 1 4 3 -2 6 -13 5 -11 0 -14 -3 -6 -6z"/>
<path d="M2018 433 c6 -2 18 -2 25 0 6 3 1 5 -13 5 -14 0 -19 -2 -12 -5z"/>
<path d="M4401 414 c0 -11 3 -14 6 -6 3 7 2 16 -1 19 -3 4 -6 -2 -5 -13z"/>
<path d="M355 410 c3 -5 8 -10 11 -10 2 0 4 5 4 10 0 6 -5 10 -11 10 -5 0 -7
-4 -4 -10z"/>
<path d="M2730 412 c-60 -6 -55 -20 7 -19 32 0 143 -2 246 -5 173 -4 190 -6
209 -25 28 -28 37 -85 38 -235 0 -122 1 -128 20 -128 20 0 20 4 14 158 -5 127
-10 163 -24 187 -35 57 -47 60 -270 65 -113 3 -221 4 -240 2z"/>
<path d="M3688 403 c-30 -8 -20 -20 15 -17 17 2 125 4 240 5 l207 3 30 -29
c41 -40 51 -85 48 -219 -4 -140 -20 -139 -26 2 -5 152 -31 195 -124 207 -29 4
-59 12 -65 17 -8 7 -13 7 -13 1 0 -6 -10 -15 -22 -21 -22 -10 -22 -11 -3 -11
34 -1 58 -39 52 -81 -10 -76 26 -74 54 3 7 20 18 37 24 37 5 0 20 3 33 6 20 6
22 3 22 -40 0 -44 -15 -64 -22 -30 -2 9 -3 -41 -4 -110 l-1 -126 64 1 63 1 0
137 c0 170 -8 203 -62 241 l-41 30 -226 -1 c-124 -1 -234 -3 -243 -6z m392
-108 c0 -8 -6 -14 -12 -12 -7 1 -13 -8 -13 -20 0 -12 -4 -25 -8 -29 -4 -4 -7
9 -7 29 0 31 9 44 33 46 4 1 7 -6 7 -14z"/>
<path d="M4718 403 c18 -2 45 -2 60 0 15 2 0 4 -33 4 -33 0 -45 -2 -27 -4z"/>
<path d="M1320 390 c0 -5 5 -10 10 -10 6 0 10 5 10 10 0 6 -4 10 -10 10 -5 0
-10 -4 -10 -10z"/>
<path d="M273 345 c0 -27 2 -38 4 -22 2 15 2 37 0 50 -2 12 -4 0 -4 -28z"/>
<path d="M1734 359 c-3 -5 -16 -9 -30 -9 -21 0 -24 -3 -19 -27 4 -16 8 -37 10
-49 3 -12 -4 -39 -14 -60 l-19 -39 -12 29 c-8 21 -8 38 0 60 l11 31 -22 -22
c-21 -20 -21 -26 -12 -85 6 -35 8 -91 5 -125 l-4 -63 51 1 c47 2 51 3 51 26 0
30 21 26 35 -5 14 -31 22 -27 17 8 -2 16 -7 30 -11 30 -4 0 -7 50 -8 112 0 73
-5 114 -12 116 -19 6 -1 22 25 22 14 0 23 4 19 10 -3 5 -12 7 -19 4 -8 -3 -17
-1 -21 5 -3 6 4 15 17 20 13 6 19 10 13 11 -5 1 -18 3 -27 5 -10 2 -20 -1 -24
-6z m15 -151 c0 -7 -4 -22 -9 -33 -7 -17 -9 -15 -9 13 -1 17 4 32 9 32 6 0 10
-6 9 -12z m-69 -53 c0 -8 6 -15 13 -15 8 0 12 -14 12 -40 0 -34 -3 -40 -21
-40 -24 0 -38 44 -28 86 7 26 24 33 24 9z m70 -55 c0 -22 -4 -40 -10 -40 -5 0
-10 18 -10 40 0 22 5 40 10 40 6 0 10 -18 10 -40z"/>
<path d="M1682 100 c0 -14 2 -19 5 -12 2 6 2 18 0 25 -3 6 -5 1 -5 -13z"/>
<path d="M2690 345 c-19 -7 -40 -21 -47 -31 -18 -28 -33 -314 -16 -314 7 0 13
10 14 23 0 12 4 70 8 130 6 92 10 110 29 127 12 12 22 26 22 32 0 7 13 9 34 5
19 -3 60 0 90 7 31 8 56 9 56 5 0 -5 9 -9 20 -9 11 0 20 5 20 10 0 6 7 10 15
10 8 0 15 -4 15 -10 0 -14 103 -13 117 1 13 13 36 2 30 -14 -4 -14 23 -47 39
-47 6 0 18 -10 27 -22 22 -34 44 -11 29 31 -8 22 -7 31 1 35 7 2 4 5 -5 5 -10
1 -18 5 -18 9 0 5 -11 14 -25 20 -36 17 -408 14 -455 -3z m297 -11 c-3 -3 -12
-4 -19 -1 -8 3 -5 6 6 6 11 1 17 -2 13 -5z"/>
<path d="M3645 333 c-17 -24 -20 -48 -23 -180 -4 -136 -3 -153 12 -153 14 0
16 18 18 133 2 170 3 179 25 220 11 19 -14 3 -32 -20z"/>
<path d="M4621 329 c-12 -19 -21 -49 -21 -66 -1 -41 -1 -205 0 -238 0 -20 5
-25 26 -25 14 0 23 4 19 9 -3 5 -1 12 5 16 5 3 10 -1 10 -9 0 -22 23 -20 71 4
l39 21 -17 31 c-43 75 -43 74 -43 56 0 -10 -4 -18 -10 -18 -5 0 -10 8 -11 18
-1 28 -17 -17 -18 -50 -1 -17 -7 -28 -15 -28 -18 0 -24 99 -14 220 4 46 5 86
3 88 -2 3 -13 -11 -24 -29z"/>
<path d="M3828 343 c7 -3 16 -2 19 1 4 3 -2 6 -13 5 -11 0 -14 -3 -6 -6z"/>
<path d="M359 300 c-14 -29 -14 -37 -3 -49 19 -21 26 -9 22 40 l-3 44 -16 -35z"/>
<path d="M1600 311 c0 -11 -3 -28 -6 -38 -3 -10 2 -7 10 7 18 29 20 50 6 50
-5 0 -10 -9 -10 -19z"/>
<path d="M2512 188 c1 -79 -2 -153 -6 -165 -7 -21 -4 -23 30 -23 l37 0 -7 65
c-6 55 -4 64 9 59 12 -5 15 2 15 35 0 34 -3 41 -20 41 -17 0 -20 7 -21 48 -1
45 -1 45 -9 14 -13 -56 -23 -50 -17 11 3 31 2 57 -3 57 -5 0 -8 -64 -8 -142z"/>
<path d="M3927 294 c6 -15 23 -19 23 -5 0 5 -7 11 -14 14 -10 4 -13 1 -9 -9z"/>
<path d="M4501 263 c-1 -24 4 -43 9 -43 12 0 12 37 0 65 -7 15 -9 10 -9 -22z"/>
<path d="M1325 270 c3 -5 13 -10 21 -10 8 0 14 5 14 10 0 6 -9 10 -21 10 -11
0 -17 -4 -14 -10z"/>
<path d="M2065 269 c-8 -12 11 -29 33 -29 19 0 10 34 -10 38 -9 2 -19 -2 -23
-9z"/>
<path d="M1896 248 c-9 -36 -7 -48 8 -48 8 0 17 -6 19 -12 3 -7 3 5 0 27 -7
49 -18 64 -27 33z"/>
<path d="M3677 240 c-3 -11 -1 -20 4 -20 5 0 9 9 9 20 0 11 -2 20 -4 20 -2 0
-6 -9 -9 -20z"/>
<path d="M3920 246 c0 -9 5 -16 10 -16 6 0 10 4 10 9 0 6 -4 13 -10 16 -5 3
-10 -1 -10 -9z"/>
<path d="M1335 240 c-3 -5 1 -10 9 -10 9 0 16 5 16 10 0 6 -4 10 -9 10 -6 0
-13 -4 -16 -10z"/>
<path d="M1837 243 c-4 -3 -7 -19 -7 -35 0 -16 -5 -38 -10 -49 -6 -10 -7 -19
-2 -19 5 0 7 -11 5 -24 -3 -13 0 -27 6 -30 11 -7 13 3 17 107 2 60 1 61 -9 50z"/>
<path d="M2390 234 c0 -8 5 -12 10 -9 6 4 8 11 5 16 -9 14 -15 11 -15 -7z"/>
<path d="M2733 224 c-20 -21 -16 -43 7 -37 11 3 20 14 20 24 0 24 -12 30 -27
13z"/>
<path d="M1455 213 c-5 -12 -9 -14 -12 -5 -3 6 -13 12 -22 12 -15 0 -19 -12
-25 -61 -3 -34 -6 -84 -6 -110 l0 -49 45 0 45 0 -5 112 c-3 62 -7 114 -9 115
-2 2 -7 -4 -11 -14z"/>
<path d="M3915 200 c-3 -5 -4 -14 0 -19 3 -6 -3 -14 -12 -20 -17 -10 -17 -10
0 -11 12 0 17 -8 17 -31 0 -17 5 -29 11 -27 6 2 10 7 10 11 -1 4 -1 30 -1 57
0 47 -11 63 -25 40z"/>
<path d="M3860 190 c0 -5 5 -10 10 -10 6 0 10 5 10 10 0 6 -4 10 -10 10 -5 0
-10 -4 -10 -10z"/>
<path d="M370 140 c0 -29 3 -50 7 -46 7 7 5 87 -3 95 -2 2 -4 -20 -4 -49z"/>
<path d="M1340 160 c0 -5 5 -10 10 -10 6 0 10 5 10 10 0 6 -4 10 -10 10 -5 0
-10 -4 -10 -10z"/>
<path d="M3150 145 c0 -8 4 -15 10 -15 5 0 7 7 4 15 -4 8 -8 15 -10 15 -2 0
-4 -7 -4 -15z"/>
<path d="M1292 120 c0 -14 2 -19 5 -12 2 6 2 18 0 25 -3 6 -5 1 -5 -13z"/>
<path d="M3098 115 c2 -15 0 -25 -7 -25 -6 0 -11 -19 -11 -45 l0 -45 54 0 54
0 -9 41 c-5 22 -7 44 -5 48 3 4 1 13 -5 21 -7 12 -9 10 -9 -7 0 -33 -20 -28
-33 7 -14 37 -36 40 -29 5z"/>
<path d="M1337 104 c-10 -10 -9 -72 2 -78 12 -8 25 64 14 75 -5 5 -12 6 -16 3z"/>
<path d="M4488 79 c-8 -25 5 -79 19 -79 10 0 13 6 9 16 -3 9 -6 29 -6 45 0 28
-15 40 -22 18z"/>
<path d="M2362 35 c0 -17 2 -22 5 -12 2 9 2 23 0 30 -3 6 -5 -1 -5 -18z"/>
<path d="M3891 44 c0 -11 3 -14 6 -6 3 7 2 16 -1 19 -3 4 -6 -2 -5 -13z"/>
<path d="M4550 30 c0 -21 5 -30 16 -30 11 0 14 5 10 16 -3 9 -6 22 -6 30 0 8
-4 14 -10 14 -5 0 -10 -13 -10 -30z"/>
<path d="M1817 26 c-4 -10 -5 -21 -2 -24 9 -9 17 6 13 25 -3 17 -4 17 -11 -1z"/>
</g>
</svg>
