<?xml version="1.0" encoding="utf-8"?>
<!-- Generator: Adobe Illustrator 24.0.1, SVG Export Plug-In . SVG Version: 6.00 Build 0)  -->
<svg version="1.1" id="Ebene_1" xmlns="http://www.w3.org/2000/svg" xmlns:xlink="http://www.w3.org/1999/xlink" x="0px" y="0px"
	 viewBox="0 0 300 300" style="enable-background:new 0 0 300 300;" xml:space="preserve">
<style type="text/css">
	.st0{fill:#A27249;}
</style>
<g>
	<g>
		<path class="st0" d="M174.9,86.4c6.2,0.9,12.2,2.4,18.2,4.3c10.4,3.2,20.3,7.7,29.5,13.5c0.6,0.4,1.5,0.7,2.3,0.7
			c10.9,0,21.7,0,32.6,0c0.9,0,1.7,0.1,2.6,0.1c0,0.2,0,0.3,0,0.4c-0.5,0.8-1,1.6-1.5,2.3c-3.7,5.7-6.8,11.6-8.7,18.1
			c-0.2,0.7-0.2,1.3,0.2,2c9.7,13.9,12.8,29.1,8.7,45.6c-3.5,14.4-11.8,25.7-24.4,33.6c-9,5.7-18.9,8.4-29.5,8.5
			c-4.5,0-8.9-0.6-13.2-1.7c-10.6-2.7-19.7-8-27.2-16c-1-1-1.9-2.1-3-3.3c-4,5.9-7.9,11.7-11.8,17.7c-4-5.9-7.8-11.7-11.6-17.4
			c-0.3,0.1-0.3,0.2-0.4,0.2c-0.1,0.1-0.2,0.2-0.2,0.2c-9.1,10.7-20.4,17.2-34.3,19.4c-7.7,1.2-15.4,0.8-22.9-1.3
			c-10.6-2.9-19.6-8.5-26.9-16.8c-7.1-8.1-11.6-17.5-13.2-28.1c-1.9-10,0.4-19.6,1-21.9c1.7-6.8,4.6-13,8.6-18.7
			c0.3-0.4,0.4-1.1,0.2-1.6c-1.6-6-4.5-11.5-7.8-16.7c-0.8-1.3-1.8-2.6-2.8-3.8c0-0.1,0-0.3,0-0.4c0.2,0,0.4,0.1,0.6,0.1
			c11.1,0,22.2,0,33.3,0c0.5,0,1-0.2,1.4-0.5c7.8-5,16.1-9,24.9-12.1c6.3-2.2,12.7-4,19.3-5.2c6.4-1.2,12.7-2.1,19.2-2.5
			C154,83.5,166.6,85.2,174.9,86.4z M161,159.8c0,24.4,19.8,44.4,44.1,44.3c24.4-0.1,44.1-19.5,44.1-44.2
			c0-25.4-20.7-44.6-45.1-44.1C180.1,116.4,161.2,135.8,161,159.8z M94.8,115.7c-23.7-0.2-44.5,19.6-44,44.9
			c0.4,23.5,19.8,43.5,44.5,43.3c24.2-0.2,43.6-20,43.7-43.9C139,135.4,119.3,115.7,94.8,115.7z M97,104.2
			c13.4,0.8,25.2,5.5,35.2,14.5c9.9,9,15.8,20.3,17.9,33.6c2.2-13.1,7.8-24.3,17.6-33.2c9.8-9,21.4-13.7,34.6-14.6
			c-15.7-7-32.2-9.9-49.2-10.2C133.7,93.8,114.9,96.6,97,104.2z"/>
		<path class="st0" d="M205.1,132c15.1,0,27.3,12.1,27.3,27.2c0,15.2-12,26.9-26.2,27.4c-15.8,0.6-28.5-12-28.5-27.3
			C177.7,143.8,190.4,131.7,205.1,132z M222.9,159.3c0-9.8-8-17.9-17.7-17.9c-9.9,0-17.9,8-18,17.8c0,9.8,8.1,17.9,17.9,17.9
			C214.8,177.2,222.9,169.1,222.9,159.3z"/>
		<path class="st0" d="M94.2,132c15.1,0,27.4,12.2,27.3,27.3c0,15.3-12.1,26.7-26,27.4c-15.9,0.7-28.7-12-28.7-27.4
			C66.8,143.6,79.7,131.7,94.2,132z M112,159.2c0-9.9-8-17.8-18-17.8c-9.6,0-17.7,8.2-17.7,17.8c0,9.8,8.1,17.9,17.9,17.9
			C104,177.2,112.1,169,112,159.2z"/>
		<path class="st0" d="M205.1,150.2c5,0,9.1,4.1,9.1,9.1s-4.1,9-9,9c-5.1,0-9.1-4-9.1-9C196,154.2,200,150.2,205.1,150.2z"/>
		<path class="st0" d="M94.2,150.1c5.1,0,9.2,4.1,9.2,9.1s-4.1,9.2-9.2,9.2c-5.2,0-9.2-4-9.2-9.2C85,154.1,89,150.1,94.2,150.1z"/>
	</g>
</g>
</svg>
